<svg xmlns="http://www.w3.org/2000/svg" width="125.41935" height="119.22581" viewBox="0 0 125.41935 119.22581">
    <defs>
        <style>.a{fill:#2c6899;}.b{fill:#fff;}</style>
    </defs>
    <rect class="a" width="125.41935" height="119.22581" rx="6"/>
    <path class="b"
          d="M90.63244,26.7708a2.978,2.978,0,0,0-2.18737-.90071H36.97428A3.0756,3.0756,0,0,0,33.886,28.95834V90.26747a3.0756,3.0756,0,0,0,3.08825,3.08825H88.44507a3.07561,3.07561,0,0,0,3.08826-3.08825V28.95834A2.97839,2.97839,0,0,0,90.63244,26.7708Z"/>
    <rect class="a" x="38.00378" y="50.58118" width="49.41174" height="38.65689" rx="1.44913"/>
    <rect class="a" x="38.00378" y="29.98774" width="49.41174" height="16.4758" rx="1.89733"/>
    <rect class="b" x="42.19649" y="55.37911" width="41.02633" height="3.52623" rx="1.76311"/>
    <rect class="b" x="42.19649" y="62.62488" width="41.02633" height="3.52623" rx="1.76311"/>
    <rect class="b" x="42.19649" y="69.87066" width="41.02633" height="3.52623" rx="1.76311"/>
    <rect class="b" x="53.37929" y="77.11643" width="20.80599" height="7.32371" rx="1.16514"/>
</svg>
