<svg xmlns="http://www.w3.org/2000/svg" width="125.37894" height="119.18739" viewBox="0 0 125.37894 119.18739">
    <defs>
        <style>.a{fill:#2c6899;}.b{fill:#fff;}</style>
    </defs>
    <rect class="a" width="125.37894" height="119.18739" rx="6"/>
    <path class="b"
          d="M72.268,82.74143a2.38031,2.38031,0,0,1-2.395,2.395H42.73458a2.38031,2.38031,0,0,1-2.395-2.395V46.023a2.38028,2.38028,0,0,1,2.395-2.39193h7.18506V73.16444A5.61744,5.61744,0,0,0,55.506,78.75076H72.268Zm0-48.69049H55.506a2.38031,2.38031,0,0,0-2.395,2.395V73.16444a2.38026,2.38026,0,0,0,2.395,2.39192h27.1384a2.38026,2.38026,0,0,0,2.395-2.39192V46.82232H74.663a2.38031,2.38031,0,0,1-2.395-2.395Zm5.48717.69713a2.31036,2.31036,0,0,0-1.69479-.69713h-.598V43.631h9.577V43.03a2.31037,2.31037,0,0,0-.69713-1.6948Z"/>
</svg>
