<!-- Generator: Adobe Illustrator 26.5.0, SVG Export Plug-In . SVG Version: 6.00 Build 0)  -->
<svg version="1.1" id="Layer_1" xmlns="http://www.w3.org/2000/svg" xmlns:xlink="http://www.w3.org/1999/xlink" x="0px" y="0px"
	 viewBox="0 0 125.4 119.2" style="enable-background:new 0 0 125.4 119.2;" xml:space="preserve">
<style type="text/css">
	.st0{fill:#2C6899;}
	.st1{fill:#FEFEFE;}
</style>
<path class="st0" d="M6,0h113.4c3.3,0,6,2.7,6,6v107.2c0,3.3-2.7,6-6,6H6c-3.3,0-6-2.7-6-6V6C0,2.7,2.7,0,6,0z"/>
<path class="st1" d="M62.6,43.1c4.8,0.1,9.7,0.2,14.6,0.4c1.1,0.1,2.3,0.2,3.4,0.4c2.7,0.5,4.5,2.3,5,5.2c0.7,4,0.9,8,0.7,12
	c-0.1,2.8-0.4,5.6-0.6,8.4c-0.2,2.1-1,3.8-2.9,5c-1.1,0.7-2.3,0.9-3.6,1c-4.9,0.5-9.8,0.6-14.7,0.6c-4.9,0-9.9-0.2-14.8-0.3
	c-1.6-0.1-3.2-0.3-4.8-0.5c-2.7-0.4-4.6-2.2-5.1-5c-0.4-2.1-0.6-4.3-0.7-6.4c-0.2-3.5-0.2-6.9,0.1-10.4c0.1-1.6,0.3-3.2,0.6-4.8
	c0.6-2.8,2.6-4.5,5.5-4.9c4.6-0.6,9.2-0.6,13.9-0.7C60.4,43.1,61.5,43.1,62.6,43.1C62.6,43.1,62.6,43.2,62.6,43.1z M58,66.8
	c4.1-2.4,8.2-4.7,12.3-7.1c-4.1-2.4-8.2-4.7-12.3-7.1C58,57.3,58,62,58,66.8z"/>
</svg>
