<svg xmlns="http://www.w3.org/2000/svg" width="125.41935" height="119.22581" viewBox="0 0 125.41935 119.22581">
    <defs>
        <style>.a{fill:#2c6899;}.b{fill:#fff;}</style>
    </defs>
    <rect class="a" width="125.41935" height="119.22581" rx="6"/>
    <path class="b"
          d="M66.14609,54.12509c-1.01643,1.58433-1.93149,2.941-2.71966,4.0324-.73773,1.02142-1.99836,2.81838-3.747,5.341-1.75548,2.53235-3.34806,4.84085-4.73355,6.86137l-.00949.01377-.00958.01367a5.40626,5.40626,0,0,1-2.708,2.05084V87.52879l20.98178,6.99394V52.55914l-5.08214-1.69407C67.71587,51.61851,67.08071,52.668,66.14609,54.12509Z"/>
    <path class="b"
          d="M45.71554,70.38769l-.00968-.01389-.00959-.014c-1.38368-2.01788-2.97625-4.32635-4.73354-6.8614-1.74882-2.52307-3.00955-4.32-3.747-5.34112-.78807-1.09127-1.703-2.44789-2.71966-4.03243-.58179-.907-1.04437-1.652-1.41041-2.27034a3.763,3.763,0,0,0-.75589.59531,3.7179,3.7179,0,0,0-.81954,1.20207,3.38607,3.38607,0,0,0-.27324,1.31136v37.811a1.796,1.796,0,0,0,2.40424,1.6392l15.08061-6.88465V72.52719A5.39582,5.39582,0,0,1,45.71554,70.38769Z"/>
    <path class="b"
          d="M93.79986,46.22088a1.994,1.994,0,0,0-.8742-.601,1.79921,1.79921,0,0,0-1.14746.05464L76.6976,52.55914V94.52273L91.99678,88.403a3.32874,3.32874,0,0,0,1.09279-.765A3.71756,3.71756,0,0,0,93.9092,86.436a3.38564,3.38564,0,0,0,.27315-1.31136V47.31369A1.59961,1.59961,0,0,0,93.79986,46.22088Z"/>
    <path class="b"
          d="M48.58039,68.38224q-2.0889-3.0463-4.74354-6.876T40.05072,56.11q-1.13149-1.56667-2.61113-3.87317t-1.95834-3.2639q-.47871-.95742-1.04445-2.437a11.09089,11.09089,0,0,1-.6963-2.56761,21.88677,21.88677,0,0,1-.13056-2.5676,16.6417,16.6417,0,0,1,16.7112-16.71119A16.6417,16.6417,0,0,1,67.03233,41.40063a21.88677,21.88677,0,0,1-.13056,2.5676,11.09039,11.09039,0,0,1-.6963,2.56761q-.56574,1.47963-1.04445,2.437t-1.95834,3.2639Q61.72305,54.54328,60.59156,56.11t-3.78613,5.39632q-2.65464,3.82965-4.74354,6.876a2.17595,2.17595,0,0,1-3.4815,0Zm-3.17687-22.064A6.95457,6.95457,0,1,0,55.23875,36.483a6.95457,6.95457,0,1,0-9.83523,9.83523Z"/>
    <path class="b"
          d="M62.15824,29.56354a16.11567,16.11567,0,0,0-11.83715-4.87411A16.64166,16.64166,0,0,0,33.61,41.40062a21.8873,21.8873,0,0,0,.13052,2.56759,11.092,11.092,0,0,0,.69628,2.56763q.56571,1.47963,1.04447,2.437.47871.95739,1.95832,3.26391,1.4797,2.30647,2.61112,3.87316,1.13157,1.56666,3.78612,5.39634,2.65469,3.8296,4.74353,6.87595a2.17595,2.17595,0,0,0,3.4815,0q2.089-3.04635,4.74364-6.87595Q59.46,57.6766,60.59159,56.11q1.13142-1.56667,2.61112-3.87316,1.47955-2.30652,1.95832-3.26391.47871-.95742,1.04447-2.437a11.092,11.092,0,0,0,.69628-2.56763,21.8873,21.8873,0,0,0,.13052-2.56759A16.11555,16.11555,0,0,0,62.15824,29.56354ZM55.23872,46.31825A6.95455,6.95455,0,1,1,45.40356,36.483a6.95455,6.95455,0,1,1,9.83516,9.83524Z"/>
</svg>
