<svg xmlns="http://www.w3.org/2000/svg" width="125.41935" height="119.22581" viewBox="0 0 125.41935 119.22581">
    <defs>
        <style>.a{fill:#2c6899;}.b{fill:#fff;}</style>
    </defs>
    <rect class="a" width="125.41935" height="119.22581" rx="6"/>
    <path class="b"
          d="M35.62341,46.97265a1.73859,1.73859,0,0,1-1.80575-1.80575v-7.223a1.73859,1.73859,0,0,1,1.80575-1.80575h7.223a1.73859,1.73859,0,0,1,1.80575,1.80575v7.223a1.73859,1.73859,0,0,1-1.80575,1.80575Zm0,18.05751a1.73859,1.73859,0,0,1-1.80575-1.80575v-7.223a1.73859,1.73859,0,0,1,1.80575-1.80575h7.223a1.73859,1.73859,0,0,1,1.80575,1.80575v7.223a1.73859,1.73859,0,0,1-1.80575,1.80575Zm0,18.05751a1.73859,1.73859,0,0,1-1.80575-1.80576v-7.223a1.73859,1.73859,0,0,1,1.80575-1.80575h7.223a1.73859,1.73859,0,0,1,1.80575,1.80575v7.223a1.73859,1.73859,0,0,1-1.80575,1.80576ZM48.26367,43.81258a1.73857,1.73857,0,0,0,1.80575,1.80575H89.79594a1.73857,1.73857,0,0,0,1.80575-1.80575V39.29821a1.73859,1.73859,0,0,0-1.80575-1.80576H50.06942a1.73859,1.73859,0,0,0-1.80575,1.80576Zm1.80575,19.86326a1.73857,1.73857,0,0,1-1.80575-1.80575V57.35571A1.73859,1.73859,0,0,1,50.06942,55.55H89.79594a1.73859,1.73859,0,0,1,1.80575,1.80575v4.51438a1.73857,1.73857,0,0,1-1.80575,1.80575Zm0,18.05751a1.73859,1.73859,0,0,1-1.80575-1.80575V75.41322a1.73859,1.73859,0,0,1,1.80575-1.80575H89.79594a1.73859,1.73859,0,0,1,1.80575,1.80575V79.9276a1.73859,1.73859,0,0,1-1.80575,1.80575Z"/>
</svg>
