<svg xmlns="http://www.w3.org/2000/svg" width="125.41935" height="119.22581" viewBox="0 0 125.41935 119.22581">
    <defs>
        <style>.a{fill:#2c6899;}.b{fill:#fff;}</style>
    </defs>
    <rect class="a" width="125.41935" height="119.22581" rx="6"/>
    <path class="b"
          d="M54.3599,53.8423H26.55867a3.20781,3.20781,0,0,1-3.20784-3.20783v-19.247a3.20782,3.20782,0,0,1,3.20784-3.20784H54.3599a3.20782,3.20782,0,0,1,3.20784,3.20784v19.247A3.20781,3.20781,0,0,1,54.3599,53.8423ZM30.83578,31.9221a3.74247,3.74247,0,1,0,3.74247,3.74247A3.74246,3.74246,0,0,0,30.83578,31.9221ZM27.62794,49.56519H53.29062V42.08024L47.442,36.23162a.802.802,0,0,0-1.13417,0l-9.05638,9.05645L33.54139,41.578a.802.802,0,0,0-1.13417,0l-4.77928,4.77934Z"/>
    <path class="b"
          d="M98.86069,53.8423H71.05945a3.2078,3.2078,0,0,1-3.20783-3.20783v-19.247a3.20781,3.20781,0,0,1,3.20783-3.20784H98.86069a3.20781,3.20781,0,0,1,3.20783,3.20784v19.247A3.2078,3.2078,0,0,1,98.86069,53.8423ZM75.33657,31.9221A3.74247,3.74247,0,1,0,79.079,35.66457,3.74247,3.74247,0,0,0,75.33657,31.9221ZM72.12873,49.56519H97.79141V42.08024l-5.84862-5.84862a.802.802,0,0,0-1.13417,0l-9.05638,9.05645L78.04217,41.578a.802.802,0,0,0-1.13416,0l-4.77928,4.77934Z"/>
    <path class="b"
          d="M54.3599,91.04618H26.55867a3.20781,3.20781,0,0,1-3.20784-3.20783v-19.247a3.20781,3.20781,0,0,1,3.20784-3.20783H54.3599a3.20781,3.20781,0,0,1,3.20784,3.20783v19.247A3.20781,3.20781,0,0,1,54.3599,91.04618ZM30.83578,69.126a3.74248,3.74248,0,1,0,3.74247,3.74247A3.74246,3.74246,0,0,0,30.83578,69.126ZM27.62794,86.76907H53.29062V79.28412L47.442,73.43551a.802.802,0,0,0-1.13417,0L37.25145,82.492,33.54139,78.7819a.802.802,0,0,0-1.13417,0l-4.77928,4.77934Z"/>
    <path class="b"
          d="M98.86069,91.04618H71.05945a3.2078,3.2078,0,0,1-3.20783-3.20783v-19.247a3.2078,3.2078,0,0,1,3.20783-3.20783H98.86069a3.2078,3.2078,0,0,1,3.20783,3.20783v19.247A3.2078,3.2078,0,0,1,98.86069,91.04618ZM75.33657,69.126A3.74248,3.74248,0,1,0,79.079,72.86845,3.74247,3.74247,0,0,0,75.33657,69.126ZM72.12873,86.76907H97.79141V79.28412l-5.84862-5.84861a.802.802,0,0,0-1.13417,0L81.75224,82.492,78.04217,78.7819a.802.802,0,0,0-1.13416,0l-4.77928,4.77934Z"/>
</svg>
