<svg xmlns="http://www.w3.org/2000/svg" width="125.41935" height="119.22581" viewBox="0 0 125.41935 119.22581">
    <defs>
        <style>.a{fill:#2c6899;}.b{fill:#fff;}</style>
    </defs>
    <rect class="a" width="125.41935" height="119.22581" rx="6"/>
    <path class="b"
          d="M58.82786,86.14646a2.19284,2.19284,0,0,1-.529-.07275l-6.18493-1.80632a1.433,1.433,0,0,1-.70985-.60488,1.10149,1.10149,0,0,1-.11224-.96448L65.547,33.97523c.13719-.54668.34609-.70257.49263-.77533a1.19605,1.19605,0,0,1,.5498-.12056,2.21564,2.21564,0,0,1,.53108.07276l6.18389,1.80424a1.44407,1.44407,0,0,1,.70881.60487,1.10356,1.10356,0,0,1,.11329.96864L59.87236,85.25058c-.13718.5446-.34609.70049-.49263.77324A1.18817,1.18817,0,0,1,58.82786,86.14646Z"/>
    <path class="b"
          d="M79.69822,74.88867a1.26576,1.26576,0,0,1-.93434-.46561l-4.388-4.64779a1.051,1.051,0,0,1-.3648-.952,1.64708,1.64708,0,0,1,.34609-.93954l9.41718-8.27082-9.46914-8.32278a1.741,1.741,0,0,1-.29413-.88757,1.02908,1.02908,0,0,1,.34505-.93122L78.78571,44.782a1.23974,1.23974,0,0,1,.91251-.44482,1.26518,1.26518,0,0,1,.93226.46561l14.806,14.02651a.81528.81528,0,0,1,.44586.78364.67455.67455,0,0,1-.30244.66724L80.65231,74.40227A1.296,1.296,0,0,1,79.69822,74.88867Z"/>
    <path class="b"
          d="M45.72009,74.88867a1.26576,1.26576,0,0,1-.93434-.46561L29.98184,60.39446a.81509.81509,0,0,1-.44483-.78156.68234.68234,0,0,1,.30244-.67139L44.766,44.82354a1.301,1.301,0,0,1,.95408-.4864,1.2715,1.2715,0,0,1,.93434.46561l4.388,4.64779a1.05006,1.05006,0,0,1,.36584.94993,1.6348,1.6348,0,0,1-.344.93538L41.645,59.6129l9.46811,8.32071a1.73724,1.73724,0,0,1,.29516.88757,1.03358,1.03358,0,0,1-.34609.9333l-4.42849,4.68936A1.24442,1.24442,0,0,1,45.72009,74.88867Z"/>
</svg>
