<svg version="1.1" id="Layer_1" xmlns="http://www.w3.org/2000/svg" xmlns:xlink="http://www.w3.org/1999/xlink" x="0px" y="0px"
	 viewBox="0 0 125.4 119.2" style="enable-background:new 0 0 125.4 119.2;" xml:space="preserve">
<style type="text/css">
	.st0{fill:#2c6899;}
	.st1{fill:#FFFFFF;}
</style>
<path class="st0" d="M6,0h113.4c3.3,0,6,2.7,6,6v107.2c0,3.3-2.7,6-6,6H6c-3.3,0-6-2.7-6-6V6C0,2.7,2.7,0,6,0z"/>
<path class="st1" d="M80.9,76.4H44.6c-2.3,0-4.2-1.9-4.2-4.2c0,0,0,0,0,0V47c0-2.3,1.9-4.2,4.2-4.2c0,0,0,0,0,0h36.3
	c2.3,0,4.2,1.9,4.2,4.2c0,0,0,0,0,0v25.1C85.1,74.5,83.2,76.4,80.9,76.4C80.9,76.4,80.9,76.4,80.9,76.4z M50.1,47.7
	c-2.7,0-4.9,2.2-4.9,4.9c0,2.7,2.2,4.9,4.9,4.9c2.7,0,4.9-2.2,4.9-4.9C55,49.9,52.8,47.7,50.1,47.7C50.1,47.7,50.1,47.7,50.1,47.7z
	 M45.9,70.8h33.5V61l-7.6-7.6c-0.4-0.4-1.1-0.4-1.5,0L58.5,65.2l-4.8-4.8c-0.4-0.4-1.1-0.4-1.5,0l-6.2,6.2V70.8z"/>
</svg>
