<svg xmlns="http://www.w3.org/2000/svg" width="125.41935" height="119.22581" viewBox="0 0 125.41935 119.22581">
    <defs>
        <style>.a{fill:#2c6899;}.b{fill:#fff;}.c{fill:none;stroke:#fff;stroke-miterlimit:10;stroke-width:1.18409px;}
        </style>
    </defs>
    <rect class="a" width="125.41935" height="119.22581" rx="6"/>
    <rect class="b" x="25.38835" y="51.82134" width="58.0598" height="3.81746" rx="0.47339"/>
    <rect class="b" x="25.38835" y="59.87344" width="58.0598" height="3.81746" rx="0.47339"/>
    <rect class="b" x="25.38835" y="67.92554" width="37.12434" height="3.81746" rx="0.47339"/>
    <path class="b"
          d="M97.87486,40.67009l-1.03294-.29972a.20351.20351,0,0,1-.13886-.25231L99.01448,32.156a.2035.2035,0,0,1,.25231-.13885l1.03294.29972a.2035.2035,0,0,1,.13885.25231l-2.31142,7.96211A.2029.2029,0,0,1,97.87486,40.67009Zm-1.93042-1.89993.73661-.78571a.20321.20321,0,0,0-.01355-.29126l-1.53417-1.3496L96.6675,34.994a.20177.20177,0,0,0,.01355-.29126l-.73661-.78571a.20342.20342,0,0,0-.28787-.00847l-2.44011,2.286a.20186.20186,0,0,0,0,.29634l2.44011,2.28771a.20191.20191,0,0,0,.28787-.00847Zm5.54063.01016,2.44011-2.28771a.20186.20186,0,0,0,0-.29634l-2.44011-2.2894a.20506.20506,0,0,0-.28787.00847l-.73661.78571a.2032.2032,0,0,0,.01355.29125l1.53417,1.35129-1.53417,1.3496a.20178.20178,0,0,0-.01355.29126l.73661.78571a.20348.20348,0,0,0,.28787.01016Z"/>
    <path class="b"
          d="M79.61531,34.09a.20029.20029,0,0,1,.224-.22394h.29281v-.77166c0-.09991.01033-.20324.01033-.20324h-.00689a.66341.66341,0,0,1-.05511.07233.19843.19843,0,0,1-.30316-.02067l-.10678-.12057a.19891.19891,0,0,1,.01034-.31695l.4203-.38583a.36846.36846,0,0,1,.279-.11024h.23424a.2013.2013,0,0,1,.22736.22393v1.63292h.29971a.20027.20027,0,0,1,.22393.22394v.17224a.20027.20027,0,0,1-.22393.22393H79.83926a.20028.20028,0,0,1-.224-.22393V34.09ZM79.595,37.2842c0-.91488.986-1.09108.986-1.33842a.16509.16509,0,0,0-.17958-.16942.26135.26135,0,0,0-.183.07454c-.09829.09488-.20332.13553-.31177.04743l-.166-.13215a.19223.19223,0,0,1-.05424-.29818.93727.93727,0,0,1,.78273-.36256.78407.78407,0,0,1,.86066.76578c0,.742-.90472.89793-.942,1.10125h.75564a.19945.19945,0,0,1,.22364.22025v.16942a.19946.19946,0,0,1-.22364.22026H79.82876a.21186.21186,0,0,1-.23382-.22026V37.2842Zm.06662,2.903.10843-.17958c.07456-.12876.17619-.13553.30156-.061a.69867.69867,0,0,0,.27787.061c.19651,0,.27784-.06777.27784-.15926,0-.12876-.10844-.17621-.30834-.17621h-.09149a.235.235,0,0,1-.23721-.15249l-.02032-.03727a.25653.25653,0,0,1,.05421-.288l.10844-.13553a2.86175,2.86175,0,0,1,.23719-.26091v-.00678a1.11834,1.11834,0,0,1-.244.02034H79.875a.197.197,0,0,1-.22027-.22025v-.16942a.1956.1956,0,0,1,.22027-.22026h1.13173a.197.197,0,0,1,.22026.22026v.06438a.38629.38629,0,0,1-.09829.27446l-.33881.38967a.69769.69769,0,0,1,.55568.67429.84848.84848,0,0,1-.93858.85389,1.295,1.295,0,0,1-.69463-.183.20938.20938,0,0,1-.05082-.30834Zm2.67715-6.24286h6.81159a.30961.30961,0,0,0,.30962-.30962v-.774a.30961.30961,0,0,0-.30962-.30962H82.33873a.30961.30961,0,0,0-.30962.30962v.774A.30961.30961,0,0,0,82.33873,33.94437Zm0,3.09618h6.81159a.30961.30961,0,0,0,.30962-.30962v-.774a.30961.30961,0,0,0-.30962-.30962H82.33873a.30961.30961,0,0,0-.30962.30962v.774A.30961.30961,0,0,0,82.33873,37.04055Zm0,3.09617h6.81159a.3096.3096,0,0,0,.30962-.30961v-.774a.30961.30961,0,0,0-.30962-.30962H82.33873a.30961.30961,0,0,0-.30962.30962v.774A.3096.3096,0,0,0,82.33873,40.13672Z"/>
    <path class="b"
          d="M67.90076,33.42635v-.83359a.33342.33342,0,0,1,.33343-.33343h7.33556a.33342.33342,0,0,1,.33343.33343v.83359a.33342.33342,0,0,1-.33343.33343H68.23419A.33342.33342,0,0,1,67.90076,33.42635Zm.33343,3.66777h7.33556a.33342.33342,0,0,0,.33343-.33343V35.9271a.33342.33342,0,0,0-.33343-.33343H68.23419a.33342.33342,0,0,0-.33343.33343v.83359A.33342.33342,0,0,0,68.23419,37.09412Zm0,3.33435h7.33556a.33342.33342,0,0,0,.33343-.33344v-.83358a.33342.33342,0,0,0-.33343-.33344H68.23419a.33342.33342,0,0,0-.33343.33344V40.095A.33342.33342,0,0,0,68.23419,40.42847Zm-2.66747-6.41861h1.33373a.33343.33343,0,0,0,.33344-.33344V32.34269a.33343.33343,0,0,0-.33344-.33344H65.56672a.33343.33343,0,0,0-.33344.33344v1.33373A.33343.33343,0,0,0,65.56672,34.00986Zm0,3.33434h1.33373a.33342.33342,0,0,0,.33344-.33343V35.677a.33343.33343,0,0,0-.33344-.33344H65.56672a.33343.33343,0,0,0-.33344.33344v1.33374A.33342.33342,0,0,0,65.56672,37.3442Zm0,3.33434h1.33373a.33342.33342,0,0,0,.33344-.33343V39.01137a.33342.33342,0,0,0-.33344-.33343H65.56672a.33342.33342,0,0,0-.33344.33343v1.33374A.33342.33342,0,0,0,65.56672,40.67854Z"/>
    <path class="b"
          d="M58.40252,35.14834a2.57233,2.57233,0,0,1,.0061,3.63346l-.0061.00627-1.13784,1.13784A2.57368,2.57368,0,0,1,53.625,36.28618l.62828-.62829a.27069.27069,0,0,1,.46215.17958,3.1199,3.1199,0,0,0,.16407.89268.27252.27252,0,0,1-.06405.28128l-.2216.22159a1.21913,1.21913,0,1,0,1.713,1.735l1.13784-1.13767a1.21881,1.21881,0,0,0,0-1.7242,1.26755,1.26755,0,0,0-.1751-.14509.27154.27154,0,0,1-.11762-.21345A.67443.67443,0,0,1,57.35,35.243l.35649-.35651a.272.272,0,0,1,.34853-.02931,2.58149,2.58149,0,0,1,.34748.29119Zm2.38633-2.38645a2.57654,2.57654,0,0,0-3.63973,0l-1.13784,1.13784-.0061.00626a2.57419,2.57419,0,0,0,.35356,3.92463.272.272,0,0,0,.34854-.02931l.35648-.3565a.67444.67444,0,0,0,.19808-.50468.27155.27155,0,0,0-.11763-.21345,1.26827,1.26827,0,0,1-.1751-.14509,1.21882,1.21882,0,0,1,0-1.7242L58.107,33.71972a1.21913,1.21913,0,1,1,1.713,1.735l-.22159.22159a.27251.27251,0,0,0-.06406.28127,3.12038,3.12038,0,0,1,.16408.89268.27068.27068,0,0,0,.46214.17959l.62829-.62829a2.57639,2.57639,0,0,0,0-3.63971Z"/>
    <path class="b"
          d="M45.39218,38.583a2.40307,2.40307,0,0,1-2.65163-2.5634V33.09292h-.479a.27091.27091,0,0,1-.27092-.27092v-.54183a.27091.27091,0,0,1,.27092-.27091h2.32631a.27091.27091,0,0,1,.27092.27091V32.822a.27091.27091,0,0,1-.27092.27092H44.1v2.92669a1.28923,1.28923,0,1,0,2.57561-.00882V33.09292h-.479a.27091.27091,0,0,1-.27091-.27092v-.54183a.2709.2709,0,0,1,.27091-.27091H48.514a.27091.27091,0,0,1,.27092.27091V32.822a.27091.27091,0,0,1-.27092.27092h-.479v2.92669a2.40681,2.40681,0,0,1-2.64281,2.5634Zm-3.52637,1.01187H48.9096a.27091.27091,0,0,1,.27092.27091v.54183a.27091.27091,0,0,1-.27092.27092H41.86581a.27091.27091,0,0,1-.27091-.27092v-.54183A.2709.2709,0,0,1,41.86581,39.59488Z"/>
    <path class="b"
          d="M36.138,39.44007h-.655l1.20155-6.19234h.78807a.30962.30962,0,0,0,.30389-.25035l.12079-.61923a.30962.30962,0,0,0-.30389-.36889h-3.091a.30962.30962,0,0,0-.30389.25034l-.12078.61924a.30961.30961,0,0,0,.30388.36889h.655l-1.20151,6.19234h-.7638a.30961.30961,0,0,0-.30389.2503l-.12085.61924a.30964.30964,0,0,0,.30391.36893h3.06674a.30963.30963,0,0,0,.30389-.25031l.12084-.61923A.30964.30964,0,0,0,36.138,39.44007Z"/>
    <path class="b"
          d="M27.571,36.10958a2.05911,2.05911,0,0,0,1.03833-1.85177,2.09172,2.09172,0,0,0-1.328-2.016,3.93326,3.93326,0,0,0-1.55125-.23258H22.13737a.30961.30961,0,0,0-.30962.30962v.63953a.30961.30961,0,0,0,.30962.30962h.64077v6.16391h-.64077a.3096.3096,0,0,0-.30962.30961v.62739a.3096.3096,0,0,0,.30962.30961h3.78682a4.51695,4.51695,0,0,0,1.29393-.14675A2.42666,2.42666,0,0,0,28.949,38.16317,2.0224,2.0224,0,0,0,27.571,36.10958Zm-3.146-2.7688h1.30511a1.63736,1.63736,0,0,1,.72615.13,1.02765,1.02765,0,0,1,.482.95684.98741.98741,0,0,1-1.02617,1.099H24.425V33.34078Zm2.17975,5.91128a1.72985,1.72985,0,0,1-.6078.09495H24.425V36.84592h1.63259a1.13649,1.13649,0,0,1,1.22023,1.22023A1.23863,1.23863,0,0,1,26.60475,39.25206Z"/>
    <path class="b"
          d="M107.15024,29.48427V89.74153H18.26914V29.48427h88.8811m1.27466-1.27457H16.99448V91.0161H108.4249V28.2097Z"/>
    <line class="c" x1="17.79973" y1="43.5087" x2="108.42483" y2="43.5087"/>
</svg>
